<svg width="26" height="26" viewBox="0 0 26 26" fill="none" xmlns="http://www.w3.org/2000/svg">
<path d="M4.57324 12.75H21.7553V18.2155C21.7553 21.6673 18.9571 24.4655 15.5053 24.4655H10.8232C7.37146 24.4655 4.57324 21.6673 4.57324 18.2155V12.75Z" stroke="#6C6C6C" stroke-width="1.5"/>
<line x1="4.32324" y1="11.4807" x2="4.32324" y2="13.5409" stroke="#6C6C6C"/>
<line x1="21.9111" y1="11.4807" x2="21.9111" y2="13.5409" stroke="#6C6C6C"/>
<path d="M18.8047 4.99593C19.3314 4.56847 19.9626 4.26541 20.6442 4.11277C21.3258 3.96013 22.0373 3.96248 22.7177 4.11961C23.398 4.27675 24.0269 4.58397 24.5503 5.0149C25.0737 5.44583 25.476 5.98758 25.7225 6.59364C25.9691 7.1997 26.0527 7.85195 25.966 8.49438C25.8793 9.13681 25.625 9.75022 25.2249 10.2819C24.8248 10.8136 24.2908 11.2478 23.6689 11.547C23.047 11.8463 21.8255 12.0017 21.1242 12V10.5C21.5608 10.5011 22.5258 10.3946 22.9129 10.2083C23.3001 10.022 23.6325 9.75171 23.8816 9.42068C24.1307 9.08965 24.2891 8.70775 24.343 8.30779C24.397 7.90783 24.345 7.50175 24.1915 7.12443C24.038 6.74711 23.7875 6.40983 23.4617 6.14154C23.1358 5.87326 22.7443 5.68199 22.3207 5.58416C21.8971 5.48633 21.4541 5.48487 21.0298 5.5799C20.6055 5.67493 20.2125 5.86361 19.8846 6.12974L18.8047 4.99593Z" fill="#6C6C6C"/>
<path d="M7.19434 4.99593C6.66762 4.56847 6.03637 4.26541 5.35481 4.11277C4.67324 3.96013 3.96173 3.96248 3.28136 4.11961C2.60099 4.27675 1.97211 4.58397 1.44872 5.0149C0.925329 5.44583 0.523069 5.98758 0.276486 6.59364C0.0299029 7.1997 -0.0536351 7.85195 0.0330472 8.49438C0.119729 9.13681 0.37404 9.75022 0.774141 10.2819C1.17424 10.8136 1.70818 11.2478 2.33009 11.547C2.952 11.8463 4.71514 12.0017 5.41647 12V10.5C4.97984 10.5011 3.47327 10.3946 3.08608 10.2083C2.69889 10.022 2.36648 9.75171 2.11738 9.42068C1.86829 9.08965 1.70996 8.70775 1.656 8.30779C1.60203 7.90783 1.65404 7.50175 1.80756 7.12443C1.96107 6.74711 2.21151 6.40983 2.53736 6.14154C2.86321 5.87326 3.25474 5.68199 3.67832 5.58416C4.1019 5.48633 4.54488 5.48487 4.9692 5.5799C5.39353 5.67493 5.78653 5.86361 6.11445 6.12974L7.19434 4.99593Z" fill="#6C6C6C"/>
<path d="M5.44308 6.50185C5.35517 5.67325 5.48591 4.83924 5.82699 4.05273C6.16806 3.26622 6.71203 2.5444 7.42438 1.93305C8.13674 1.3217 9.00192 0.834174 9.96503 0.501409C10.9281 0.168644 11.9682 -0.00209698 13.0191 1.94349e-05C14.07 0.00213585 15.1089 0.177063 16.0699 0.513703C17.0308 0.850343 17.8929 1.34135 18.6013 1.95556C19.3097 2.56977 19.849 3.29378 20.185 4.08165C20.521 4.86951 20.6464 5.70404 20.5532 6.53228L18.609 6.39528C18.6782 5.78022 18.5851 5.16049 18.3356 4.57541C18.0861 3.99033 17.6856 3.45267 17.1595 2.99655C16.6334 2.54044 15.9933 2.17581 15.2797 1.92582C14.5661 1.67583 13.7946 1.54592 13.0141 1.54435C12.2337 1.54278 11.4614 1.66958 10.7461 1.91669C10.0309 2.1638 9.38844 2.52585 8.85944 2.97984C8.33044 3.43383 7.92648 3.96987 7.67319 4.55394C7.4199 5.138 7.32282 5.75735 7.3881 6.37268L5.44308 6.50185Z" fill="#6C6C6C"/>
<path d="M22.4995 11L21.4995 13" stroke="#6C6C6C"/>
<path d="M23.9995 14L24.9995 17L23.9995 20" stroke="#6C6C6C" stroke-width="1.5"/>
<path d="M2.49951 14L0.999512 17L2.49951 20" stroke="#6C6C6C" stroke-width="1.5"/>
<path d="M7.74951 18C7.74951 16.7574 8.75687 15.75 9.99951 15.75H16.4995C17.7422 15.75 18.7495 16.7574 18.7495 18C18.7495 19.2426 17.7422 20.25 16.4995 20.25H9.99951C8.75687 20.25 7.74951 19.2426 7.74951 18Z" stroke="#6C6C6C" stroke-width="1.5"/>
<path d="M18.4864 7.38268C19.258 7.4365 19.7825 8.18424 19.277 8.76974C18.8852 9.22351 18.3432 9.63436 17.6734 9.97767C16.4123 10.6241 14.7838 10.9872 13.0899 10.9997C11.396 11.0122 9.75158 10.6733 8.46167 10.0458C7.78204 9.71512 7.22512 9.3162 6.8139 8.87269C6.2816 8.29859 6.78765 7.52672 7.56775 7.46058C8.18106 7.40857 8.74064 7.83647 9.17945 8.2681C9.42901 8.51358 9.75121 8.7352 10.1356 8.9222C10.9497 9.31824 11.9875 9.53214 13.0565 9.52424C14.1256 9.51634 15.1533 9.28717 15.9492 8.87924C16.3061 8.6963 16.6055 8.48297 16.8389 8.24861C17.286 7.79969 17.8543 7.33861 18.4864 7.38268Z" fill="#6C6C6C"/>
</svg>
