<svg width="24" height="25" viewBox="0 0 24 25" fill="none" xmlns="http://www.w3.org/2000/svg">
<path d="M1.51627 12.7508C1.21413 11.3493 2.28212 10.0266 3.71573 10.0266H20.2843C21.7179 10.0266 22.7859 11.3493 22.4837 12.7508L20.5046 21.9304C20.2812 22.9665 19.365 23.7062 18.3051 23.7062H5.69486C4.63496 23.7062 3.71878 22.9665 3.4954 21.9304L1.51627 12.7508Z" stroke="#6C6C6C" stroke-width="1.5"/>
<line x1="7.80859" y1="13.5845" x2="7.80859" y2="20.4919" stroke="#6C6C6C" stroke-width="1.5"/>
<line x1="12.2847" y1="13.5845" x2="12.2847" y2="20.4919" stroke="#6C6C6C" stroke-width="1.5"/>
<line x1="16.7607" y1="13.5845" x2="16.7607" y2="20.4919" stroke="#6C6C6C" stroke-width="1.5"/>
<path d="M5.612 3.31884C5.88246 2.34493 6.76918 1.6709 7.77995 1.6709H16.4876C17.5534 1.6709 18.473 2.41869 18.6903 3.46211L19.3589 6.67199C19.6499 8.06917 18.5833 9.38078 17.1562 9.38078H6.88855C5.40063 9.38078 4.32246 7.96238 4.72059 6.52872L5.612 3.31884Z" stroke="#6C6C6C" stroke-width="1.5"/>
<rect x="8.30644" y="0.719522" width="7.51271" height="1.43904" rx="0.719522" stroke="#6C6C6C" stroke-width="1.43904"/>
</svg>
