<svg width="24" height="24" viewBox="0 0 24 24" fill="none" xmlns="http://www.w3.org/2000/svg">
<path d="M0.75 18.4678C0.75 16.2046 2.33656 14.2512 4.55173 13.7872L9.64057 12.7213C11.1424 12.4067 12.693 12.4045 14.1958 12.7149L19.4409 13.7984C21.6589 14.2566 23.25 16.2099 23.25 18.4748C23.25 21.1121 21.1121 23.25 18.4749 23.25H5.53216C2.89104 23.25 0.75 21.1089 0.75 18.4678Z" stroke="#6C6C6C" stroke-width="1.5"/>
<path d="M16.7045 5.21737C16.7045 7.65355 14.63 9.68473 12 9.68473C9.36994 9.68473 7.29541 7.65355 7.29541 5.21737C7.29541 2.78118 9.36994 0.75 12 0.75C14.63 0.75 16.7045 2.78118 16.7045 5.21737Z" stroke="#6C6C6C" stroke-width="1.5"/>
</svg>
