<svg width="26" height="24" viewBox="0 0 26 24" fill="none" xmlns="http://www.w3.org/2000/svg">
<path d="M13.7089 1.35185L15.7589 7.28997C16.0721 8.19708 16.9261 8.80573 17.8858 8.80573H24.3169C25.0544 8.80573 25.3491 9.75854 24.7403 10.1748L19.6969 13.6235C18.8601 14.1957 18.5093 15.2568 18.8401 16.215L20.8029 21.9004C21.0387 22.5835 20.2671 23.1721 19.6706 22.7642L14.27 19.0713C13.5043 18.5477 12.4957 18.5477 11.73 19.0713L6.32943 22.7642C5.73293 23.1721 4.96133 22.5835 5.19714 21.9004L7.15989 16.215C7.49069 15.2568 7.13987 14.1957 6.30309 13.6235L1.25973 10.1748C0.65095 9.75854 0.945575 8.80573 1.68307 8.80573H8.11423C9.07388 8.80573 9.9279 8.19707 10.2411 7.28997L12.2911 1.35185C12.5236 0.678181 13.4764 0.678179 13.7089 1.35185Z" stroke="#6C6C6C" stroke-width="1.5"/>
</svg>
